/* XPM */
static char * file_xpm[] = {
"43 38 101 2",
"  	c None",
". 	c #171917",
"+ 	c #191B18",
"@ 	c #1A1C1A",
"# 	c #1C1D1B",
"$ 	c #1E1F1D",
"% 	c #212320",
"& 	c #242523",
"* 	c #252724",
"= 	c #272826",
"- 	c #282927",
"; 	c #2A2C29",
"> 	c #2B2D2A",
", 	c #2C2D2B",
"' 	c #2D2F2C",
") 	c #30312F",
"! 	c #323331",
"~ 	c #353734",
"{ 	c #363835",
"] 	c #373936",
"^ 	c #393B38",
"/ 	c #3B3D3A",
"( 	c #3D3E3C",
"_ 	c #3E403D",
": 	c #3F413E",
"< 	c #414240",
"[ 	c #434542",
"} 	c #444643",
"| 	c #464845",
"1 	c #474946",
"2 	c #494B48",
"3 	c #4A4C4A",
"4 	c #4D4F4C",
"5 	c #50524F",
"6 	c #535552",
"7 	c #555654",
"8 	c #565855",
"9 	c #575956",
"0 	c #595B58",
"a 	c #5C5E5B",
"b 	c #5F605E",
"c 	c #60625F",
"d 	c #616360",
"e 	c #636562",
"f 	c #646563",
"g 	c #656664",
"h 	c #666765",
"i 	c #676866",
"j 	c #686967",
"k 	c #696B68",
"l 	c #6C6E6B",
"m 	c #717370",
"n 	c #757774",
"o 	c #787A77",
"p 	c #7B7D7A",
"q 	c #7D7F7C",
"r 	c #7F817E",
"s 	c #828481",
"t 	c #848683",
"u 	c #888A87",
"v 	c #8A8C89",
"w 	c #8C8E8B",
"x 	c #8D8F8C",
"y 	c #8F918E",
"z 	c #90928F",
"A 	c #949693",
"B 	c #989A97",
"C 	c #9A9B98",
"D 	c #9B9D99",
"E 	c #9D9F9C",
"F 	c #9FA19E",
"G 	c #A0A29F",
"H 	c #A5A7A4",
"I 	c #A7A9A6",
"J 	c #A9ABA8",
"K 	c #AAACA9",
"L 	c #ACAEAB",
"M 	c #ADAFAC",
"N 	c #B0B2AE",
"O 	c #B5B7B4",
"P 	c #B8BAB7",
"Q 	c #BBBDBA",
"R 	c #BDBFBC",
"S 	c #BFC1BE",
"T 	c #C2C4C1",
"U 	c #C4C6C3",
"V 	c #C7C9C6",
"W 	c #CBCDCA",
"X 	c #CED0CD",
"Y 	c #D1D3CF",
"Z 	c #D3D5D2",
"` 	c #D6D8D5",
" .	c #D8DAD6",
"..	c #D9DBD7",
"+.	c #DBDDDA",
"@.	c #DDDFDC",
"#.	c #E1E4E0",
"$.	c #E5E7E4",
"%.	c #EAECE9",
"&.	c #EDEFEB",
"*.	c #EFF1EE",
"                                                                                      ",
"                                                                . { d C e             ",
"                                                      . > a o x O @.*.*.Y )           ",
"                                        + $ _ c i y W ..#.*.*.*.*.*.*.*.*.c           ",
"                              ; 2 7 l J S V %.*.*.*.*.*.*.*.*.&.#.W Y %.*.0           ",
"                        f F K W *.*.*.*.*.*.*.*.*.*.&. .T J w j 5 ' a @.*.0           ",
"                      8 *.*.*.*.*.*.*.*.*.*.V I C o 6 / &           < ..*.0           ",
"                      l *.*.*.&.T S I l 6 1 =                       2 @.*.0           ",
"                      h *.#.s ] # +                                 2 @.*.0           ",
"                      h *. .~                                       2 @.*.0           ",
"                      h *..._                                       2 @.*.0           ",
"                      h *..._                                       2 @.*.0           ",
"                      h *..._                                       2 @.*.0           ",
"                      h *..._                                       2 @.*.0           ",
"                      h *..._                                       2 @.*.0           ",
"                      h *..._                                       2 @.*.0           ",
"                      f %. ._                                       2 ..%.9           ",
"                      d $.Y (                                       1 Y $.8           ",
"                      c @.W /                                       } W @.6           ",
"                      a  .U ^                                       [ V  .5           ",
"                      9 Y Q {                                       : S Y 4           ",
"                      6 V O ~                                       _ P V 2           ",
"                      5 R L !                                       ! M R 1           ",
"                      4 O H )                               , : h b h I O }           ",
"                      2 N G '                           ) o F H N N J M N }           ",
"                      1 J C '                         2 C J J J J J J J J 1           ",
"                      [ H A >                       | E H H H H H H H H H _           ",
"              ; 8 i f q F z ;                     % v F F F F F F F F F v .           ",
"          ; m C C C C C C w -                     1 C C C C C C C C C C 1             ",
"        ! x A A A A A A A u *                     < A A A A A A A A z 5               ",
"      + s y y y y y y y y s #                       h y y y y y x m /                 ",
"      8 w w w w w w w w w d                           _ h l k 5 )                     ",
"      s u u u u u u u u n +                                                           ",
"      p t t t t t t t j $                                                             ",
"      ~ o s s s r k /                                                                 ",
"        ^ g d e 2 #                                                                   ",
"                                                                                      ",
"                                                                                      "};
