/* XPM */
static char * folder_xpm[] = {
"50 41 101 2",
"  	c None",
". 	c #131512",
"+ 	c #151614",
"@ 	c #171816",
"# 	c #1A1C1A",
"$ 	c #1D1F1C",
"% 	c #1F201E",
"& 	c #212320",
"* 	c #232422",
"= 	c #242523",
"- 	c #262825",
"; 	c #282927",
"> 	c #2A2C29",
", 	c #2D2E2C",
"' 	c #2E2F2D",
") 	c #2F312E",
"! 	c #30322F",
"~ 	c #313330",
"{ 	c #333432",
"] 	c #343633",
"^ 	c #363735",
"/ 	c #373936",
"( 	c #383937",
"_ 	c #3B3D3B",
": 	c #3D3F3C",
"< 	c #414341",
"[ 	c #454744",
"} 	c #474946",
"| 	c #4A4C49",
"1 	c #4D4F4C",
"2 	c #4F514F",
"3 	c #575956",
"4 	c #595B58",
"5 	c #5E5F5D",
"6 	c #5F615E",
"7 	c #636562",
"8 	c #646563",
"9 	c #676866",
"0 	c #686967",
"a 	c #6B6D6A",
"b 	c #6D6F6C",
"c 	c #6F716E",
"d 	c #727471",
"e 	c #747673",
"f 	c #777976",
"g 	c #7C7E7B",
"h 	c #7F817E",
"i 	c #818380",
"j 	c #828481",
"k 	c #838582",
"l 	c #848683",
"m 	c #878986",
"n 	c #888A87",
"o 	c #8A8C89",
"p 	c #8B8D8A",
"q 	c #8D8F8C",
"r 	c #8E908D",
"s 	c #90928F",
"t 	c #939592",
"u 	c #959794",
"v 	c #969895",
"w 	c #979996",
"x 	c #999B98",
"y 	c #9B9D99",
"z 	c #9C9E9B",
"A 	c #A1A3A0",
"B 	c #A2A4A1",
"C 	c #A5A7A4",
"D 	c #A8AAA7",
"E 	c #A9ABA8",
"F 	c #AAACA9",
"G 	c #ADAFAC",
"H 	c #B0B2AE",
"I 	c #B1B3B0",
"J 	c #B5B7B4",
"K 	c #B7B9B6",
"L 	c #BABCB9",
"M 	c #BCBEBB",
"N 	c #BDBFBC",
"O 	c #C0C2BF",
"P 	c #C3C5C2",
"Q 	c #C6C8C5",
"R 	c #C7C9C6",
"S 	c #C8CAC7",
"T 	c #CFD1CE",
"U 	c #D2D4D1",
"V 	c #D4D6D3",
"W 	c #D6D8D5",
"X 	c #D8DAD6",
"Y 	c #DADCD9",
"Z 	c #DBDDDA",
"` 	c #DFE1DD",
" .	c #E2E4E1",
"..	c #E4E6E3",
"+.	c #E6E8E5",
"@.	c #E7E9E6",
"#.	c #E9EBE8",
"$.	c #EAECE9",
"%.	c #EBEEEA",
"&.	c #EEF0EC",
"*.	c #EFF1EE",
"                                                                                                    ",
"                                                                                                    ",
"                                                                                                    ",
"                                                                                                    ",
"                        K *.*.*.*.*.*.*.*.*.*. .                                                    ",
"                      > %.*.*.*.*.*.*.*.*.*.*.*./                                                   ",
"                      ( @...s i m m m m h q Z *.[                                                   ",
"                      _ $.U =             $ O *.}                                                   ",
"                    ) p &.U *             # O *.s [ : : : : ^ ' ' ' ' ! $                           ",
"                d @.$.&.*.V -             % Q *.&.%.%.%.%.%.%.%.%.%.%.$.` 2                         ",
"                ` *.@.+.@.L %             + I @.@.@.@.@.@.@.@.@.@.@.@.&.*.a                         ",
"                $.` i 3 9 /                 , 6 4 4 4 4 4 4 4 4 4 3 5 P &.8                         ",
"                %.X ~                                                 A *.0                         ",
"                %.X ~                                                 A *.0                         ",
"                %.X :     > v D B B B B B B A A A A A A A A A A A A B X *.R w A B u <               ",
"                %.X :     o *.*.*.*.*.*.*.*.*.*.*.*.*.*.*.*.*.*.*.*.*.*.*.*.*.*.*.*.X               ",
"                %.X :     O *...X X X X X X X X X X X X X X X X X X X X X X X X +.*.@.              ",
"                @.V _   | ` +.4 - > > > > > > > > > > > > > > > > > > > > > * / L #.z               ",
"                ` T /   j  .K                                                 ~ S  .:               ",
"                X R ) + H Z f                                                 a X Q                 ",
"                T N ; ( R T [                                               . y U k                 ",
"                Q H ; 7 R C @                                               { J R ^                 ",
"                M B / n N a                                                 6 N F                   ",
"                I w 6 E H _                                                 l J c                   ",
"                D z r G q @                                               > B G >                   ",
"                A C D D 6                                                 1 D t                     ",
"                x A A w ]                                                 e A 6                     ",
"                t y y g .                                               & s y -                     ",
"                r t t 3                                                 [ t k                       ",
"                n r n ~                                                 8 r 4                       ",
"                l o b .                                               # j n &                       ",
"                j m d | } 1 | | | | | | | | | | | | | | | | | | | | } 6 m f                         ",
"                j j j j j j j j j j j j j j j j j j j j j j j j j j j j j 1                         ",
"                1 h i i i i i i i i i i i i i i i i i i i i i i i i i i f .                         ",
"                  ; ! ) ) ) ) ) ) ) ) ) ) ) ) ) ) ) ) ) ) ) ) ) ) ) ) ) *                           ",
"                                                                                                    ",
"                                                                                                    ",
"                                                                                                    ",
"                                                                                                    ",
"                                                                                                    ",
"                                                                                                    "};
