/* XPM */
static const char * movie_xpm[] = {
"50 55 853 2",
"  	c None",
". 	c #020202",
"+ 	c #0C0D0C",
"@ 	c #1C1D1D",
"# 	c #2E3030",
"$ 	c #3C3F3F",
"% 	c #494D4D",
"& 	c #515656",
"* 	c #505656",
"= 	c #474C4C",
"- 	c #393E3E",
"; 	c #2A2F2F",
"> 	c #191C1C",
", 	c #090B0B",
"' 	c #010101",
") 	c #161818",
"! 	c #3B3F3F",
"~ 	c #646868",
"{ 	c #888C8C",
"] 	c #9FA3A3",
"^ 	c #AEB3B3",
"/ 	c #B5BABA",
"( 	c #BDC2C2",
"_ 	c #C3C9C8",
": 	c #C2C9C9",
"< 	c #B9C3C2",
"[ 	c #AEBBBA",
"} 	c #A8B6B5",
"| 	c #97A6A5",
"1 	c #808B8A",
"2 	c #5C6665",
"3 	c #353B3A",
"4 	c #111313",
"5 	c #030404",
"6 	c #282B2B",
"7 	c #5C6362",
"8 	c #909896",
"9 	c #AEB5B4",
"0 	c #B8BEBE",
"a 	c #BBC0C0",
"b 	c #BBC1C0",
"c 	c #ADB3B2",
"d 	c #8F9595",
"e 	c #7F8584",
"f 	c #797D7D",
"g 	c #808282",
"h 	c #989D9D",
"i 	c #ABB5B4",
"j 	c #B4C1C0",
"k 	c #B5C4C3",
"l 	c #B3C1C0",
"m 	c #AAB8B7",
"n 	c #899493",
"o 	c #565D5C",
"p 	c #202323",
"q 	c #212524",
"r 	c #5F6766",
"s 	c #9BA4A4",
"t 	c #B3BDBC",
"u 	c #B8C0BF",
"v 	c #B7C0BE",
"w 	c #969E9D",
"x 	c #454949",
"y 	c #131414",
"z 	c #070808",
"A 	c #030303",
"B 	c #040404",
"C 	c #0D0E0E",
"D 	c #292B2B",
"E 	c #626968",
"F 	c #A6B2B1",
"G 	c #B5C1C0",
"H 	c #B0BDBC",
"I 	c #94A09F",
"J 	c #565E5E",
"K 	c #171A1A",
"L 	c #080909",
"M 	c #454B4B",
"N 	c #8D9897",
"O 	c #B0BCBB",
"P 	c #B3BFBE",
"Q 	c #B3BFBD",
"R 	c #B4BFBE",
"S 	c #A5B0AF",
"T 	c #454B4A",
"U 	c #080808",
"V 	c #070707",
"W 	c #060606",
"X 	c #0F100F",
"Y 	c #616968",
"Z 	c #B0BBBA",
"` 	c #B2BFBE",
" .	c #B2C0BF",
"..	c #B2C1C0",
"+.	c #ACBCBB",
"@.	c #808C8B",
"#.	c #3A403F",
"$.	c #010202",
"%.	c #131515",
"&.	c #606767",
"*.	c #A4B0AF",
"=.	c #B1BDBC",
"-.	c #AAB6B5",
";.	c #A6B1B0",
">.	c #A9B5B4",
",.	c #B0BEBD",
"'.	c #AFBEBD",
").	c #869291",
"!.	c #161918",
"~.	c #2E3131",
"{.	c #A0AAA9",
"].	c #B2BDBC",
"^.	c #AEBDBC",
"/.	c #9DACAB",
"(.	c #99A8A7",
"_.	c #A8B9B8",
":.	c #AFBFBE",
"<.	c #9EABAA",
"[.	c #525958",
"}.	c #080908",
"|.	c #181B1B",
"1.	c #6B7472",
"2.	c #AAB7B6",
"3.	c #8B9695",
"4.	c #4B5251",
"5.	c #363A3A",
"6.	c #4C5453",
"7.	c #95A3A2",
"8.	c #ADBDBC",
"9.	c #ACBDBC",
"0.	c #7C8988",
"a.	c #101111",
"b.	c #262928",
"c.	c #99A5A4",
"d.	c #AFBCBB",
"e.	c #808D8C",
"f.	c #353B3B",
"g.	c #272B2B",
"h.	c #555E5E",
"i.	c #9FAEAD",
"j.	c #AFBDBC",
"k.	c #A7B4B3",
"l.	c #5D6262",
"m.	c #0A0B0B",
"n.	c #141616",
"o.	c #6B7575",
"p.	c #A9B8B7",
"q.	c #ACBAB9",
"r.	c #A8B4B3",
"s.	c #0A0A0A",
"t.	c #0D0D0D",
"u.	c #707B7A",
"v.	c #AABAB9",
"w.	c #ABBBBA",
"x.	c #8B9A99",
"y.	c #202424",
"z.	c #050505",
"A.	c #3E4444",
"B.	c #A1AFAE",
"C.	c #535C5B",
"D.	c #090909",
"E.	c #121313",
"F.	c #7B8786",
"G.	c #ADBAB9",
"H.	c #AAB5B4",
"I.	c #5D6362",
"J.	c #060707",
"K.	c #5C6564",
"L.	c #A6B4B3",
"M.	c #5E6564",
"N.	c #0B0B0B",
"O.	c #828E8D",
"P.	c #A9B8B8",
"Q.	c #A9B9B8",
"R.	c #A5B4B3",
"S.	c #5F6868",
"T.	c #141515",
"U.	c #242828",
"V.	c #7A8786",
"W.	c #A9B9B7",
"X.	c #A9B7B6",
"Y.	c #6C7675",
"Z.	c #1A1C1C",
"`.	c #0C0D0D",
" +	c #2B2F2F",
".+	c #889695",
"++	c #AAB9B8",
"@+	c #ABB9B8",
"#+	c #ACB8B7",
"$+	c #A5AFAE",
"%+	c #4C5251",
"&+	c #414746",
"*+	c #9CABAA",
"=+	c #A7B6B5",
"-+	c #9DA9A8",
";+	c #757D7D",
">+	c #6A7271",
",+	c #869190",
"'+	c #A6B3B2",
")+	c #A2AEAD",
"!+	c #313333",
"~+	c #171919",
"{+	c #3F4545",
"]+	c #A5B5B4",
"^+	c #A6B7B6",
"/+	c #A7B7B5",
"(+	c #A3B0AF",
"_+	c #7F8887",
":+	c #6F7978",
"<+	c #879493",
"[+	c #A7B7B6",
"}+	c #A9B6B5",
"|+	c #ABB6B5",
"1+	c #959F9E",
"2+	c #303433",
"3+	c #1A1D1D",
"4+	c #808B8B",
"5+	c #A4B4B3",
"6+	c #A7B6B4",
"7+	c #A8B3B2",
"8+	c #A7B2B1",
"9+	c #A7B3B2",
"0+	c #9AA2A1",
"a+	c #838A89",
"b+	c #767D7D",
"c+	c #77807F",
"d+	c #879190",
"e+	c #9CAAA9",
"f+	c #A4B5B4",
"g+	c #707878",
"h+	c #4E5655",
"i+	c #A0AEAD",
"j+	c #A3B2B1",
"k+	c #A3B3B2",
"l+	c #A6B5B4",
"m+	c #A9B3B3",
"n+	c #ACB7B6",
"o+	c #A3B1B0",
"p+	c #A2B2B1",
"q+	c #A4B1B0",
"r+	c #A5B1B0",
"s+	c #A7B0AF",
"t+	c #A9B0AF",
"u+	c #A8B1B0",
"v+	c #A7B1B0",
"w+	c #A3B3B1",
"x+	c #A4B2B1",
"y+	c #B4C2C1",
"z+	c #B5C3C2",
"A+	c #B6C4C4",
"B+	c #B1C0BF",
"C+	c #9FACAB",
"D+	c #3E4343",
"E+	c #141615",
"F+	c #7D8887",
"G+	c #A1AEAD",
"H+	c #7E8B8A",
"I+	c #525A59",
"J+	c #313535",
"K+	c #222424",
"L+	c #1F2121",
"M+	c #2C2F2F",
"N+	c #858E8D",
"O+	c #A0AFAE",
"P+	c #9FAFAE",
"Q+	c #A1AEAE",
"R+	c #A1ACAB",
"S+	c #A2ABAA",
"T+	c #A3ACAB",
"U+	c #A1ACAA",
"V+	c #A0ABAA",
"W+	c #A2AFAE",
"X+	c #A1AFAD",
"Y+	c #9FADAC",
"Z+	c #5C6463",
"`+	c #424646",
" @	c #363939",
".@	c #444948",
"+@	c #636B6A",
"@@	c #858F8E",
"#@	c #A1B0AE",
"$@	c #A2B0AF",
"%@	c #6E7978",
"&@	c #333737",
"*@	c #96A1A0",
"=@	c #232727",
"-@	c #0E0D0D",
";@	c #0E0E0E",
">@	c #242626",
",@	c #707979",
"'@	c #9EADAC",
")@	c #9DADAC",
"!@	c #9CA8A7",
"~@	c #ABB2B2",
"{@	c #C3C7C7",
"]@	c #D1D3D4",
"^@	c #CCCFCF",
"/@	c #B8BDBD",
"(@	c #A0ACAB",
"_@	c #A0ADAC",
":@	c #9BA9A8",
"<@	c #5A6262",
"[@	c #191C1B",
"}@	c #080707",
"|@	c #090A0A",
"1@	c #1B1C1C",
"2@	c #99A7A6",
"3@	c #909D9C",
"4@	c #252928",
"5@	c #505757",
"6@	c #879090",
"7@	c #292D2D",
"8@	c #0C0C0C",
"9@	c #303534",
"0@	c #919D9C",
"a@	c #9BAAA9",
"b@	c #9BA8A6",
"c@	c #A3AAAA",
"d@	c #BCBFC3",
"e@	c #C6C9CD",
"f@	c #C3C6CA",
"g@	c #C2C5C9",
"h@	c #C3C5C9",
"i@	c #ACB0B3",
"j@	c #9CA4A4",
"k@	c #9FA9A8",
"l@	c #9EAAA9",
"m@	c #798382",
"n@	c #262929",
"o@	c #7F8D8B",
"p@	c #99A6A5",
"q@	c #424848",
"r@	c #050606",
"s@	c #656D6D",
"t@	c #6B7372",
"u@	c #0E0F0F",
"v@	c #9BA7A6",
"w@	c #9AA7A6",
"x@	c #96A09F",
"y@	c #8C9398",
"z@	c #9AA4AD",
"A@	c #A5B0BA",
"B@	c #9EA8B1",
"C@	c #97A1A9",
"D@	c #9099A1",
"E@	c #8A9198",
"F@	c #8E9596",
"G@	c #9CA6A4",
"H@	c #9DA6A6",
"I@	c #9CA7A6",
"J@	c #5C6363",
"K@	c #171818",
"L@	c #687573",
"M@	c #96A5A3",
"N@	c #9BA8A7",
"O@	c #596161",
"P@	c #6C7474",
"Q@	c #727B7B",
"R@	c #292E2D",
"S@	c #0F0F0F",
"T@	c #818B8A",
"U@	c #99A4A3",
"V@	c #8D9797",
"W@	c #626A72",
"X@	c #74818D",
"Y@	c #95A6B6",
"Z@	c #9AABBB",
"`@	c #94A4B3",
" #	c #808E9B",
".#	c #626D77",
"+#	c #7A8183",
"@#	c #9AA3A2",
"##	c #9BA3A3",
"$#	c #9BA4A3",
"%#	c #5A6160",
"&#	c #111211",
"*#	c #5A6463",
"=#	c #98A5A4",
"-#	c #656F6E",
";#	c #6F7876",
">#	c #899594",
",#	c #303635",
"'#	c #373C3B",
")#	c #8E9B9A",
"!#	c #96A2A1",
"~#	c #95A2A1",
"{#	c #919B9B",
"]#	c #585E62",
"^#	c #3D454C",
"/#	c #556069",
"(#	c #616C76",
"_#	c #535D66",
":#	c #484E55",
"<#	c #7F8485",
"[#	c #9AA1A1",
"}#	c #99A0A0",
"|#	c #747A7A",
"1#	c #101010",
"2#	c #535B5B",
"3#	c #95A1A0",
"4#	c #97A2A1",
"5#	c #69706F",
"6#	c #050707",
"7#	c #6A7372",
"8#	c #919C9B",
"9#	c #474D4C",
"0#	c #111111",
"a#	c #1F2222",
"b#	c #6E7878",
"c#	c #93A1A0",
"d#	c #92A09F",
"e#	c #7B8585",
"f#	c #414547",
"g#	c #1E2123",
"h#	c #1B1E22",
"i#	c #1D2024",
"j#	c #2F3235",
"k#	c #626869",
"l#	c #969C9C",
"m#	c #979E9E",
"n#	c #959A9A",
"o#	c #4D5050",
"p#	c #212323",
"q#	c #6E7676",
"r#	c #95A09F",
"s#	c #606867",
"t#	c #929D9C",
"u#	c #838E8D",
"v#	c #4E5352",
"w#	c #1D1F1E",
"x#	c #121212",
"y#	c #161717",
"z#	c #3B3F3E",
"A#	c #6F7878",
"B#	c #929F9E",
"C#	c #8F9D9C",
"D#	c #8E9E9D",
"E#	c #909E9E",
"F#	c #889392",
"G#	c #5D6464",
"H#	c #646B6A",
"I#	c #7C8585",
"J#	c #939C9B",
"K#	c #949B9B",
"L#	c #959B9B",
"M#	c #969B9B",
"N#	c #8F9594",
"O#	c #555A59",
"P#	c #242625",
"Q#	c #2F3131",
"R#	c #686F6E",
"S#	c #949D9D",
"T#	c #939D9C",
"U#	c #8F9998",
"V#	c #8F9A99",
"W#	c #8E9998",
"X#	c #778180",
"Y#	c #616A69",
"Z#	c #575E5E",
"`#	c #5E6665",
" $	c #717B7A",
".$	c #909B9A",
"+$	c #8E9A99",
"@$	c #8D9B9A",
"#$	c #8C9C9A",
"$$	c #8B9C9B",
"%$	c #8C9B9B",
"&$	c #8C9B9A",
"*$	c #8D9C9B",
"=$	c #919999",
"-$	c #929999",
";$	c #919B9A",
">$	c #808A89",
",$	c #687170",
"'$	c #5A6261",
")$	c #5B6362",
"!$	c #6D7575",
"~$	c #939B9B",
"{$	c #909A99",
"]$	c #8C9796",
"^$	c #2E3232",
"/$	c #8C9695",
"($	c #8C9998",
"_$	c #8C9897",
":$	c #8B9796",
"<$	c #8B9897",
"[$	c #899897",
"}$	c #889997",
"|$	c #889998",
"1$	c #8D9E9D",
"2$	c #94A4A3",
"3$	c #96A6A5",
"4$	c #92A2A1",
"5$	c #8A9B9A",
"6$	c #8D9796",
"7$	c #8E9796",
"8$	c #8C9898",
"9$	c #8C9A99",
"0$	c #8D9A99",
"a$	c #8D9998",
"b$	c #7E8988",
"c$	c #1E2020",
"d$	c #262A2A",
"e$	c #818D8C",
"f$	c #8A9493",
"g$	c #889594",
"h$	c #8A9695",
"i$	c #8F9C9B",
"j$	c #879695",
"k$	c #869695",
"l$	c #859695",
"m$	c #879897",
"n$	c #8B9B9A",
"o$	c #838F8E",
"p$	c #7C8686",
"q$	c #7D8787",
"r$	c #879392",
"s$	c #8F9E9D",
"t$	c #92A1A0",
"u$	c #8A9594",
"v$	c #899695",
"w$	c #879795",
"x$	c #8A9796",
"y$	c #5F6867",
"z$	c #222525",
"A$	c #86918F",
"B$	c #859291",
"C$	c #869493",
"D$	c #2C2E2E",
"E$	c #2D302F",
"F$	c #606868",
"G$	c #889796",
"H$	c #849291",
"I$	c #839392",
"J$	c #829392",
"K$	c #859795",
"L$	c #687473",
"M$	c #393D3D",
"N$	c #151616",
"O$	c #0F1010",
"P$	c #252828",
"Q$	c #545C5B",
"R$	c #808E8D",
"S$	c #859392",
"T$	c #899694",
"U$	c #828F8E",
"V$	c #8A9997",
"W$	c #849593",
"X$	c #849493",
"Y$	c #869391",
"Z$	c #879291",
"`$	c #899796",
" %	c #444C4B",
".%	c #707D7B",
"+%	c #84908F",
"@%	c #848F8E",
"#%	c #82908F",
"$%	c #727E7D",
"%%	c #212222",
"&%	c #1C1C1C",
"*%	c #2A2D2D",
"=%	c #7D8A89",
"-%	c #818F8E",
";%	c #81908F",
">%	c #829391",
",%	c #657271",
"'%	c #424949",
")%	c #80908E",
"!%	c #81908E",
"~%	c #282A2A",
"{%	c #7B8988",
"]%	c #81918F",
"^%	c #83908F",
"/%	c #869392",
"(%	c #2E3433",
"_%	c #5B6564",
":%	c #818C8B",
"<%	c #798786",
"[%	c #373B3B",
"}%	c #191919",
"|%	c #222222",
"1%	c #4C5353",
"2%	c #7F8C8B",
"3%	c #7E8C8B",
"4%	c #7E8D8C",
"5%	c #65716F",
"6%	c #7F8D8C",
"7%	c #424747",
"8%	c #131313",
"9%	c #1D1D1D",
"0%	c #151515",
"a%	c #829190",
"b%	c #818E8D",
"c%	c #8D9C9A",
"d%	c #1B1E1E",
"e%	c #3B4141",
"f%	c #7D8C8B",
"g%	c #737F7D",
"h%	c #7D8988",
"i%	c #7F8E8D",
"j%	c #778483",
"k%	c #626B6B",
"l%	c #697372",
"m%	c #7C8A89",
"n%	c #737F7E",
"o%	c #232424",
"p%	c #171717",
"q%	c #161616",
"r%	c #505857",
"s%	c #7E8E8D",
"t%	c #7B8B8A",
"u%	c #1E1F1F",
"v%	c #181818",
"w%	c #1D1E1E",
"x%	c #656F6F",
"y%	c #7D8B8A",
"z%	c #7D8A8A",
"A%	c #8F9E9C",
"B%	c #5B6665",
"C%	c #6C7877",
"D%	c #697675",
"E%	c #5B6465",
"F%	c #7F8B8A",
"G%	c #7A8685",
"H%	c #7C8887",
"I%	c #7B8785",
"J%	c #7B8887",
"K%	c #6F7B7A",
"L%	c #202121",
"M%	c #1B1B1B",
"N%	c #1A1A1A",
"O%	c #4D5554",
"P%	c #7C8C8B",
"Q%	c #788887",
"R%	c #788987",
"S%	c #495150",
"T%	c #606A69",
"U%	c #7F8F8E",
"V%	c #707E7D",
"W%	c #7E8C8A",
"X%	c #7E8E8C",
"Y%	c #353C3C",
"Z%	c #404745",
"`%	c #7B8A88",
" &	c #4F5758",
".&	c #4F5557",
"+&	c #7B8685",
"@&	c #798483",
"#&	c #7A8483",
"$&	c #778583",
"%&	c #373A3A",
"&&	c #606B6A",
"*&	c #798A88",
"=&	c #758685",
"-&	c #758684",
";&	c #748583",
">&	c #616F6E",
",&	c #6C7A78",
"'&	c #829290",
")&	c #606C6A",
"!&	c #141716",
"~&	c #5C6766",
"{&	c #768582",
"]&	c #40464A",
"^&	c #494C56",
"/&	c #767F80",
"(&	c #7D8786",
"_&	c #788180",
":&	c #788181",
"<&	c #778281",
"[&	c #758381",
"}&	c #7B8A89",
"|&	c #5A6363",
"1&	c #1E1E1E",
"2&	c #202020",
"3&	c #212121",
"4&	c #778685",
"5&	c #738482",
"6&	c #728482",
"7&	c #798988",
"8&	c #5B6868",
"9&	c #576261",
"0&	c #7C8B89",
"a&	c #2E3535",
"b&	c #6D7A78",
"c&	c #727F7E",
"d&	c #3E424D",
"e&	c #3F4051",
"f&	c #6E747D",
"g&	c #838D8D",
"h&	c #747F7E",
"i&	c #73807F",
"j&	c #72807F",
"k&	c #7A8988",
"l&	c #323434",
"m&	c #242525",
"n&	c #252525",
"o&	c #242424",
"p&	c #282828",
"q&	c #484E4D",
"r&	c #6D7B7A",
"s&	c #738483",
"t&	c #718280",
"u&	c #718180",
"v&	c #7D8D8D",
"w&	c #5B6568",
"x&	c #4D5657",
"y&	c #738180",
"z&	c #808F8E",
"A&	c #464F4F",
"B&	c #353B39",
"C&	c #74817F",
"D&	c #758382",
"E&	c #484E5A",
"F&	c #323249",
"G&	c #595E72",
"H&	c #7C848B",
"I&	c #869292",
"J&	c #6F7E7D",
"K&	c #6F7F7D",
"L&	c #788886",
"M&	c #6D7A79",
"N&	c #545D5D",
"O&	c #4E5554",
"P&	c #667170",
"Q&	c #6E7F7D",
"R&	c #6F807F",
"S&	c #707B84",
"T&	c #4B505D",
"U&	c #4A5057",
"V&	c #505B5A",
"W&	c #101212",
"X&	c #373E3D",
"Y&	c #73807E",
"Z&	c #7D8C8A",
"`&	c #5B646B",
" *	c #393C52",
".*	c #3F3A5D",
"+*	c #605F75",
"@*	c #888C99",
"#*	c #909B9E",
"$*	c #6E7E7C",
"%*	c #768684",
"&*	c #748584",
"**	c #738382",
"=*	c #728281",
"-*	c #6E7F7E",
";*	c #718281",
">*	c #768886",
",*	c #A4AEAE",
"'*	c #889398",
")*	c #5B6371",
"!*	c #484D63",
"~*	c #3B3E51",
"{*	c #565E66",
"]*	c #525C5B",
"^*	c #151717",
"/*	c #333A39",
"(*	c #6B7877",
"_*	c #565B68",
":*	c #3B374F",
"<*	c #4A3E64",
"[*	c #5E5C7B",
"}*	c #5F6A7E",
"|*	c #6B7B84",
"1*	c #91A3A5",
"2*	c #9FB3B1",
"3*	c #9FB3B2",
"4*	c #9DB0AE",
"5*	c #99ABA9",
"6*	c #97A9A8",
"7*	c #9AABAB",
"8*	c #94A6A9",
"9*	c #8C99A3",
"0*	c #8D92A4",
"a*	c #77718A",
"b*	c #4D4867",
"c*	c #3E3C58",
"d*	c #4F5663",
"e*	c #6F7C7D",
"f*	c #829390",
"g*	c #515B5A",
"h*	c #242928",
"i*	c #565F5F",
"j*	c #7D8D8B",
"k*	c #748281",
"l*	c #626871",
"m*	c #525567",
"n*	c #424C63",
"o*	c #3E4E62",
"p*	c #435B63",
"q*	c #466B69",
"r*	c #4B7875",
"s*	c #4C776E",
"t*	c #4F766F",
"u*	c #537D7B",
"v*	c #547574",
"w*	c #526873",
"x*	c #485B72",
"y*	c #464D6B",
"z*	c #494664",
"A*	c #49475B",
"B*	c #5A616A",
"C*	c #727F80",
"D*	c #859693",
"E*	c #71817F",
"F*	c #404947",
"G*	c #3E4645",
"H*	c #758481",
"I*	c #91A3A0",
"J*	c #808F8D",
"K*	c #758383",
"L*	c #687678",
"M*	c #5C6C6D",
"N*	c #4F6664",
"O*	c #466362",
"P*	c #405E59",
"Q*	c #3F5C58",
"R*	c #426161",
"S*	c #485F5E",
"T*	c #516165",
"U*	c #59686E",
"V*	c #667277",
"W*	c #738080",
"X*	c #849492",
"Y*	c #54605F",
"Z*	c #4C5655",
"`*	c #7A8A89",
" =	c #95A8A5",
".=	c #92A4A2",
"+=	c #849592",
"@=	c #869694",
"#=	c #859593",
"$=	c #7F8F8D",
"%=	c #889996",
"&=	c #90A19F",
"*=	c #9EAEAD",
"==	c #ADB9B7",
"-=	c #879290",
";=	c #46504E",
">=	c #272C2B",
",=	c #2A302F",
"'=	c #4A5453",
")=	c #5D6A67",
"!=	c #8A9696",
"~=	c #AEB6B5",
"{=	c #B3BCBB",
"]=	c #B4C0BF",
"^=	c #B6C1BF",
"/=	c #B2BCBB",
"(=	c #B1B8B8",
"_=	c #717877",
":=	c #474949",
"                                                                                                    ",
"                                                                                                    ",
"                                                                                                    ",
"                                                                                                    ",
"                                                                                                    ",
"                                                                                                    ",
"                                                                                                    ",
"                                                                                                    ",
"                                      . + @ # $ % & * = - ; > , '                                   ",
"                                . ) ! ~ { ] ^ / ( _ : < [ } | 1 2 3 4                               ",
"                            5 6 7 8 9 0 a b c d e f g h i j k k l m n o p '                         ",
"                          q r s t u u v u w x y z A B C D E F j j j G H I J K                       ",
"                      L M N O P Q R P P S T U V V V V V W X Y Z P P `  ...+.@.#.$.                  ",
"                    %.&.*.=.-.;.>.,.'.,.).!.V V V V V V V W ~.{.].=.^./.(._.:.<.[.}.                ",
"                  |.1.2.Z 3.4.5.6.7.8.9.0.a.V V W W W V V V b.c.O d.e.f.g.h.i.j.k.l.m.              ",
"                n.o.p.q.r.* s.U t.u.v.w.x.y.B z.W W W z.z.B A.B.q.} C.U D.E.F.G.G.H.I.V             ",
"              J.K.L.p.p.k.M.y N.6 O.P.Q.R.S.T.z.W W W W z.U.V.W.Q.X.Y.Z.`. +.+++@+#+$+%+            ",
"              &+*+} =+=+} -+;+>+,+'+=+=+} )+>+!+E.m.`.~+{+0.]+^+/+} (+_+:+<+]+[+[+}+|+1+2+          ",
"            3+4+R.5+R.6+>.7+8+8+9+'+'+R.'+9+8+0+a+b+c+d+e+R.]+f+]+L.k.7+9+k.]+]+R.L.k.r.g+`.        ",
"          $.h+i+j+k+l+k.8+m+n+9+*.o+o+p+o+q+r+s+t+u+v+;.q+j+j+j+w+x+q+k.[ y+z+A+B+k.q+x+C+D+        ",
"          E+F+G+H+I+J+K+L+M+& N+*.i+O+P+O+Q+)+R+S+T+U+V+W+X+B.B.B.B.Y+1 Z+`+ @.@+@@@B.#@$@%@m.      ",
"          &@*@Y.=@-@N.;@D.s.U >@,@Y+'@)@'@C+!@~@{@]@^@/@{.C+(@_@C+:@<@[@V }@U N.|@1@Z+2@Y+3@4@      ",
"        . 5@6@7@s.t.s.8@D.N.s.B 9@0@e+a@e+b@c@d@e@f@g@h@i@j@k@l@l@m@) A D.s.U s.s.N.n@o@:@p@q@      ",
"        r@s@t@K u@8@t.s.N.s.D.. n.1 v@w@w@x@y@z@A@B@C@D@E@F@G@H@I@J@W . U D.s.D.8@s.K@L@M@N@O@      ",
"        V P@Q@R@S@N.t.D.N.s.U . ) T@U@U@U@V@W@X@Y@Z@`@ #.#+#@###$#%#J.A W D.N.U t.s.&#*#7.=#-#      ",
"        V ;#>#,#S@N.;@s.8@s.U . '#)#!#~#!#{#]#^#/#(#(#_#:#<#[#}#[#|#E.A W s.8@D.t.N.1#2#3#4#5#      ",
"        6#7#8#9#0#8@S@N.t.N.D.a#b#c#d#d#d#c#e#f#g#h#i#j#k#l#m#m#h n#o#L W N.t.D.;@s.p#q#x@r#s#      ",
"        B K.t#u#v#w#x#t.S@y#z#A#B#C#D#D#D#D#E#F#P@G#H#I#t#J#J#K#L#M#N#O#P#1#;@`.T.Q#R#S#T#T#5@      ",
"        $.M U#V#W#X#Y#Z#`# $>#.$+$@$#$$$$$$$%$&$*$*$*$*$@$V#=$=$-$-$-$;$>$,$'$)$!$N+~$=${$]$-       ",
"          ^$d+/$/$]$($($($($_$:$<$[$}$|$|$|$|$1$2$3$4$5$[$<$_$6$6$7$7$V@8$9$9$0$a$V@7$7$N b$c$      ",
"          d$e$f$n n g$g$0$h$a$i$<+j$k$l$l$m$n$o$p$q$r$s$t$.+g$>#>#>#u$>#v$j$w$j$.+>#u$u$x$y$J.      ",
"          z$V.F#A$,+B$C$Z#D$E$F$G$H$I$J$K$L$M$N$8@N.O$P$Q$R$S$S$).).T$r$U$V$W$X$S$Y$Z$Y$`$ %'       ",
"          K@.%+%@%U$#%$%%%&%x#*%=%-%;%>%,%K+t.0#0#x#0#1#1#'%)%!%U$B$Y.&@~%4.{%]%#%^%o$/%C$(%        ",
"          L _%#%:%@.o@<%[%}%|%1%#%2%3%4%#.t.N.s.8@8@8@s.s.T.5%)%6%-%7%8%9%0%K.a%6%e.b%c%{%d%        ",
"          ' e%f%g%h%0.i%j%k%l%6%m%=%=%n%o%p%q%q%q%q%q%q%q%0%r%s%t%i%Q$u%v%w%x%i%y%z%g$A%B%z         ",
"            ~+C%D%E%F%G%V.0.H%G%I%F.J%K%L%p%v%}%M%M%N%}%v%q%O%P%Q%R%t%_%S%T%U%Q%Q%V%W%X%Y%          ",
"            A Z%`% &.&+&@&@&#&#&#&@&j%$&%&&%M%N%N%N%N%N%N%9%&&*&=&=&-&*&*&*&-&;&>&,&'&)&;@          ",
"              !&~&{&]&^&/&(&_&:&:&<&[&}&|&%%1&2&3&3&3&2&9%7%4&5&5&5&5&5&5&6&7&8&9&0&<%a&            ",
"                7@b&c&d&e&f&g&@&h&i&i&j&k&O@l&m&n&o&o&p&q&r&s&t&t&t&t&u&R%v&w&x&y&z&A&J.            ",
"                A B&C&D&E&F&G&H&I&{%c&J&K&L&M&N&&+D+O&P&4&t&Q&Q&Q&R&Q&v&S&T&U&[&)%V&W&              ",
"                  B X&Y&Z&`& *.*+*@*#*{%$*%*5&&***=***t&-*;*>*n$,*'*)*!*~*{*Z&]%]*^*                ",
"                    A /*(*)%j&_*:*<*[*}*|*1*2*3*4*5*6*5*7*8*9*0*a*b*c*d*e*f*'&g*%.                  ",
"                        h*i*j*'&k*l*m*n*o*p*q*r*s*t*u*v*w*x*y*z*A*B*C*'&D*E*F*m.                    ",
"                          `.G*H*I*}$J*K*L*M*N*O*P*Q*R*S*T*U*V*W*X%X*>%>%Y*y.                        ",
"                              ) Z*`* =.=+=@=#=]%J*$=i%)%X*%=&=*===-=;=>=B                           ",
"                                  m.,='=)=!=~={=]=j ^=/=(=7+3@_=:=K@'                               ",
"                                                                                                    ",
"                                                                                                    ",
"                                                                                                    ",
"                                                                                                    ",
"                                                                                                    ",
"                                                                                                    ",
"                                                                                                    ",
"                                                                                                    ",
"                                                                                                    "};
