/* XPM */
static char * usb_logo84x84_xpm[] = {
"84 84 323 2",
"  	c None",
". 	c #FEFEFE",
"+ 	c #FFFFFF",
"@ 	c #FAFBFC",
"# 	c #EEF0F2",
"$ 	c #DCDDDE",
"% 	c #D9DBDC",
"& 	c #DADBDD",
"* 	c #EAECED",
"= 	c #F7F8F9",
"- 	c #F5F7F9",
"; 	c #D4D7DA",
"> 	c #9A9EA1",
", 	c #6D747B",
"' 	c #34373A",
") 	c #2A2F33",
"! 	c #2C3135",
"~ 	c #2B2F33",
"{ 	c #34383B",
"] 	c #61676C",
"^ 	c #8B9094",
"/ 	c #C0C3C6",
"( 	c #F0F2F3",
"_ 	c #D8DBDD",
": 	c #828A90",
"< 	c #262E34",
"[ 	c #000000",
"} 	c #161C20",
"| 	c #6E7479",
"1 	c #C8CCD0",
"2 	c #FEFEFF",
"3 	c #CFD5D8",
"4 	c #474E54",
"5 	c #050505",
"6 	c #060606",
"7 	c #060605",
"8 	c #020101",
"9 	c #30353A",
"0 	c #AEB5BA",
"a 	c #F9FBFC",
"b 	c #CFD4D8",
"c 	c #42494E",
"d 	c #000001",
"e 	c #040403",
"f 	c #060505",
"g 	c #20282E",
"h 	c #AFB5B9",
"i 	c #FCFDFD",
"j 	c #E7E9EB",
"k 	c #5A6167",
"l 	c #050404",
"m 	c #363C41",
"n 	c #D5D8DA",
"o 	c #FEFFFF",
"p 	c #A6ABAF",
"q 	c #090D11",
"r 	c #030202",
"s 	c #050504",
"t 	c #898E93",
"u 	c #F5F6F7",
"v 	c #E7EAED",
"w 	c #5F676D",
"x 	c #293138",
"y 	c #DBDDDF",
"z 	c #CBCED0",
"A 	c #1A2127",
"B 	c #020100",
"C 	c #B8BDC1",
"D 	c #C3C5C7",
"E 	c #000409",
"F 	c #8B9095",
"G 	c #F6F7F8",
"H 	c #FDFDFD",
"I 	c #A1A2A4",
"J 	c #696D72",
"K 	c #EFF0F0",
"L 	c #8E9092",
"M 	c #666B70",
"N 	c #EEEFF0",
"O 	c #F7F8F8",
"P 	c #8D8F92",
"Q 	c #666C71",
"R 	c #070809",
"S 	c #060707",
"T 	c #020202",
"U 	c #010101",
"V 	c #030303",
"W 	c #1A1A1A",
"X 	c #353535",
"Y 	c #414141",
"Z 	c #3F3F3F",
"` 	c #363636",
" .	c #262626",
"..	c #0E0E0E",
"+.	c #040404",
"@.	c #636363",
"#.	c #9C9C9C",
"$.	c #A0A0A0",
"%.	c #9F9F9F",
"&.	c #A1A1A1",
"*.	c #1D1D1D",
"=.	c #8C8C8C",
"-.	c #A2A2A2",
";.	c #A8A8A8",
">.	c #525252",
",.	c #393939",
"'.	c #8F8F8F",
").	c #B9B9B9",
"!.	c #CCCCCC",
"~.	c #D4D4D4",
"{.	c #D3D3D3",
"].	c #C1C1C1",
"^.	c #B1B1B1",
"/.	c #9B9B9B",
"(.	c #676767",
"_.	c #101010",
":.	c #272727",
"<.	c #828282",
"[.	c #A3A3A3",
"}.	c #909090",
"|.	c #787878",
"1.	c #4E4E4E",
"2.	c #0D0D0D",
"3.	c #A4A4A4",
"4.	c #2E2E2E",
"5.	c #E8E8E8",
"6.	c #878787",
"7.	c #595959",
"8.	c #D0D0D0",
"9.	c #222222",
"0.	c #3E3E3E",
"a.	c #D7D7D7",
"b.	c #F4F4F4",
"c.	c #DEDEDE",
"d.	c #B4B4B4",
"e.	c #9D9D9D",
"f.	c #F9F9F9",
"g.	c #2C2C2C",
"h.	c #DFDFDF",
"i.	c #2B2B2B",
"j.	c #CDCDCD",
"k.	c #EDEDED",
"l.	c #E1E1E1",
"m.	c #E9E9E9",
"n.	c #DDDDDD",
"o.	c #3C3C3C",
"p.	c #CFCFCF",
"q.	c #1C1C1C",
"r.	c #7E7E7E",
"s.	c #DBDBDB",
"t.	c #505050",
"u.	c #313131",
"v.	c #2D2D2D",
"w.	c #2F2F2F",
"x.	c #5D5D5D",
"y.	c #BCBCBC",
"z.	c #ADADAD",
"A.	c #757575",
"B.	c #707070",
"C.	c #7D7D7D",
"D.	c #DCDCDC",
"E.	c #717171",
"F.	c #AEAEAE",
"G.	c #6B6B6B",
"H.	c #080808",
"I.	c #161616",
"J.	c #1F1F1F",
"K.	c #0B0B0B",
"L.	c #131313",
"M.	c #0C0C0C",
"N.	c #FCFCFC",
"O.	c #FAFAFA",
"P.	c #BABABA",
"Q.	c #8D8D8D",
"R.	c #FBFBFB",
"S.	c #A7A7A7",
"T.	c #C2C2C2",
"U.	c #777777",
"V.	c #404040",
"W.	c #818181",
"X.	c #F7F7F7",
"Y.	c #5E5E5E",
"Z.	c #696969",
"`.	c #F3F3F3",
" +	c #252525",
".+	c #070707",
"++	c #3D3D3D",
"@+	c #F8F8F8",
"#+	c #ABABAB",
"$+	c #B3B3B3",
"%+	c #F1F1F1",
"&+	c #848484",
"*+	c #111111",
"=+	c #8B8B8B",
"-+	c #F5F5F5",
";+	c #838383",
">+	c #E0E0E0",
",+	c #656565",
"'+	c #F6F6F6",
")+	c #1B1B1B",
"!+	c #3B3B3B",
"~+	c #424242",
"{+	c #7C7C7C",
"]+	c #CBCBCB",
"^+	c #969696",
"/+	c #E6E6E6",
"(+	c #242424",
"_+	c #464646",
":+	c #0A0A0A",
"<+	c #747474",
"[+	c #ECECEC",
"}+	c #7F7F7F",
"|+	c #6F6F6F",
"1+	c #373737",
"2+	c #F0F0F0",
"3+	c #606060",
"4+	c #EFEFEF",
"5+	c #8A8A8A",
"6+	c #E2E2E2",
"7+	c #515151",
"8+	c #484848",
"9+	c #1E1E1E",
"0+	c #DADADA",
"a+	c #5A5A5A",
"b+	c #D5D5D5",
"c+	c #444444",
"d+	c #888888",
"e+	c #202020",
"f+	c #919191",
"g+	c #C3C3C3",
"h+	c #434343",
"i+	c #323232",
"j+	c #454545",
"k+	c #C6C6C6",
"l+	c #151515",
"m+	c #3A3A3A",
"n+	c #EAEAEA",
"o+	c #E7E7E7",
"p+	c #808080",
"q+	c #949494",
"r+	c #0F0F0F",
"s+	c #181818",
"t+	c #494949",
"u+	c #979797",
"v+	c #939393",
"w+	c #555555",
"x+	c #898989",
"y+	c #AAAAAA",
"z+	c #BEBEBE",
"A+	c #C0C0C0",
"B+	c #090909",
"C+	c #989898",
"D+	c #BFBFBF",
"E+	c #BBBBBB",
"F+	c #B6B6B6",
"G+	c #8E8E8E",
"H+	c #545454",
"I+	c #343434",
"J+	c #191919",
"K+	c #212121",
"L+	c #8C8E91",
"M+	c #FAFAFB",
"N+	c #97999A",
"O+	c #666A6D",
"P+	c #EEEFEF",
"Q+	c #C2C3C5",
"R+	c #000002",
"S+	c #7B7E82",
"T+	c #F2F3F4",
"U+	c #C8CACD",
"V+	c #11181D",
"W+	c #030201",
"X+	c #B2B9BF",
"Y+	c #E1E4E7",
"Z+	c #4F565D",
"`+	c #010100",
" @	c #1B2127",
".@	c #D8D9DA",
"+@	c #93979A",
"@@	c #000103",
"#@	c #787F87",
"$@	c #F1F3F5",
"%@	c #DEE1E3",
"&@	c #1D2429",
"*@	c #CBD0D4",
"=@	c #FFFFFE",
"-@	c #BCC1C5",
";@	c #2A2E31",
">@	c #151B1F",
",@	c #9CA3A9",
"'@	c #F8F9FA",
")@	c #B4B9BD",
"!@	c #292E32",
"~@	c #030302",
"{@	c #181D21",
"]@	c #959CA2",
"^@	c #F9FAFB",
"/@	c #FDFDFE",
"(@	c #C2C5C8",
"_@	c #575D62",
":@	c #080C0F",
"<@	c #000305",
"[@	c #424B51",
"}@	c #ADB3B7",
"|@	c #F8F8F9",
"1@	c #E7E8EA",
"2@	c #B6BCC0",
"3@	c #70767B",
"4@	c #3B444B",
"5@	c #212426",
"6@	c #181A1D",
"7@	c #394147",
"8@	c #A7ACB0",
"9@	c #DFE2E4",
"0@	c #D7D7D8",
"a@	c #CBCCCD",
"b@	c #CACBCB",
"c@	c #CACBCC",
"d@	c #CBCCCC",
"e@	c #D4D5D5",
"f@	c #DEE0E2",
"g@	c #E9ECEE",
"h@	c #FDFEFF",
"                                                                                                                                                                        ",
"                                                                                                                                                                        ",
"                                                                                                                                                                        ",
"                                                                                                                                                                        ",
"                        . + + + + + + + + + + + + + + + + + + + + + + + + + + + + + + + + + + + + + + + + + + + + + + + + + + + + + + + + + + + +                       ",
"                    + + + @ # $ % & & & & & & & & & & & & & & & & & & & & & & & & & & & & & & & & & & & & & & & & & & & & & & & & & & & % $ * = + + +                   ",
"                  + + - ; > , ' ) ! ! ! ! ! ! ! ! ! ! ! ! ! ! ! ! ! ! ! ! ! ! ! ! ! ! ! ! ! ! ! ! ! ! ! ! ! ! ! ! ! ! ! ! ! ! ! ! ! ! ! ~ { ] ^ / ( + +                 ",
"                + + _ : < [ [ [ [ [ [ [ [ [ [ [ [ [ [ [ [ [ [ [ [ [ [ [ [ [ [ [ [ [ [ [ [ [ [ [ [ [ [ [ [ [ [ [ [ [ [ [ [ [ [ [ [ [ [ [ [ [ [ [ } | 1 2 + .             ",
"              + + 3 4 [ [ 5 6 6 6 6 6 6 6 6 6 6 6 6 6 6 6 6 6 6 6 6 6 6 6 6 6 6 6 6 6 6 6 6 6 6 6 6 6 6 6 6 6 6 6 6 6 6 6 6 6 6 6 6 6 6 6 6 6 7 8 [ 9 0 a +             ",
"            + + b c d e 6 6 6 6 6 6 6 6 6 6 6 6 6 6 6 6 6 6 6 6 6 6 6 6 6 6 6 6 6 6 6 6 6 6 6 6 6 6 6 6 6 6 6 6 6 6 6 6 6 6 6 6 6 6 6 6 6 6 6 6 6 f [ g h i +           ",
"            + j k [ l 6 6 6 6 6 6 6 6 6 6 6 6 6 6 6 6 6 6 6 6 6 6 6 6 6 6 6 6 6 6 6 6 6 6 6 6 6 6 6 6 6 6 6 6 6 6 6 6 6 6 6 6 6 6 6 6 6 6 6 6 6 6 6 f [ m n + +         ",
"          + o p q r 6 6 6 6 6 6 6 6 6 6 6 6 6 6 6 6 6 6 6 6 6 6 6 6 6 6 6 6 6 6 6 6 6 6 6 6 6 6 6 6 6 6 6 6 6 6 6 6 6 6 6 6 6 6 6 6 6 6 6 6 6 6 6 6 6 s [ t u +         ",
"          + v w [ f 6 6 6 6 6 6 6 6 6 6 6 6 6 6 6 6 6 6 6 6 6 6 6 6 6 6 6 6 6 6 6 6 6 6 6 6 6 6 6 6 6 6 6 6 6 6 6 6 6 6 6 6 6 6 6 6 6 6 6 6 6 6 6 6 6 6 [ x y +         ",
"          + z A B 6 6 6 6 6 6 6 6 6 6 6 6 6 6 6 6 6 6 6 6 6 6 6 6 6 6 6 6 6 6 6 6 6 6 6 6 6 6 6 6 6 6 6 6 6 6 6 6 6 6 6 6 6 6 6 6 6 6 6 6 6 6 6 6 6 6 6 5 [ C + +       ",
"        . + D E e 6 6 6 6 6 6 6 6 6 6 6 6 6 6 6 6 6 6 6 6 6 6 6 6 6 6 6 6 6 6 6 6 6 6 6 6 6 6 6 6 6 6 6 6 6 6 6 6 6 6 6 6 6 6 6 6 6 6 6 6 6 6 6 6 6 6 6 6 [ F G +       ",
"        + H I [ 5 6 6 6 6 6 6 6 6 6 6 6 6 6 6 6 6 6 6 6 6 6 6 6 6 6 6 6 6 6 6 6 6 6 6 6 6 6 6 6 6 6 6 6 6 6 6 6 6 6 6 6 6 6 6 6 6 6 6 6 6 6 6 6 6 6 6 6 6 [ J K +       ",
"        + = L [ 6 6 6 6 6 6 6 6 6 6 6 6 6 6 6 6 6 6 6 6 6 6 6 6 6 6 6 6 6 6 6 6 6 6 6 6 6 6 6 6 6 6 6 6 6 6 6 6 6 6 6 6 6 6 6 6 6 6 6 6 6 6 6 6 6 6 6 6 6 [ M N +       ",
"        + O P [ 6 6 6 6 6 6 6 6 6 6 6 6 6 6 6 6 6 6 6 6 6 6 6 6 6 6 6 6 6 6 6 6 6 6 6 6 6 6 6 6 6 6 6 6 6 6 6 6 6 6 6 6 6 6 6 6 6 6 6 6 6 6 6 6 6 6 6 6 6 [ Q N +       ",
"        + O P [ 6 6 6 6 6 6 6 6 6 6 6 6 6 6 6 6 6 6 6 6 6 6 6 6 6 6 6 6 6 6 6 6 6 6 6 6 6 6 6 6 6 6 6 6 6 6 6 6 6 6 6 6 6 6 6 6 6 6 6 6 6 6 6 6 6 6 6 6 6 [ Q N +       ",
"        + O P [ 6 6 6 6 6 6 6 6 6 6 6 6 6 6 6 6 6 6 6 6 6 6 6 6 6 6 6 6 6 6 6 6 6 6 6 6 6 6 6 6 6 6 6 6 6 6 6 6 6 6 6 6 6 6 6 6 6 6 6 6 6 6 6 6 6 6 6 6 6 [ Q N +       ",
"        + O P [ 6 6 6 6 6 6 6 6 6 6 6 6 6 6 6 6 6 6 6 6 6 6 6 6 6 6 6 6 6 6 6 6 6 6 6 6 6 6 6 6 6 6 6 6 6 6 6 6 6 6 6 6 6 6 6 6 6 6 6 6 6 6 6 6 6 6 6 6 6 [ Q N +       ",
"        + O P [ 6 6 6 6 6 6 6 6 6 6 6 6 6 6 6 6 6 6 6 6 6 6 6 6 6 6 6 6 6 6 6 6 6 6 6 6 6 6 6 6 6 6 6 6 6 6 6 6 6 6 6 6 6 6 6 6 6 6 6 6 6 6 6 6 6 6 6 6 6 [ Q N +       ",
"        + O P [ 6 6 6 6 6 6 6 6 6 6 6 6 6 6 6 6 6 6 6 6 6 6 6 6 6 6 6 6 6 6 6 6 6 6 6 6 6 6 6 6 6 6 6 6 6 6 6 6 6 6 6 6 6 6 6 6 6 6 6 6 6 6 6 6 6 6 6 6 6 [ Q N +       ",
"        + O P [ 6 6 6 6 6 6 6 6 6 6 6 6 6 6 6 6 6 6 6 6 6 6 6 6 6 6 6 6 6 6 6 6 6 6 6 6 6 6 6 6 6 6 6 6 6 6 6 6 6 6 6 6 6 6 6 6 6 6 6 6 6 6 6 6 6 6 6 6 6 [ Q N +       ",
"        + O P [ 6 6 6 6 6 6 6 6 6 6 6 6 6 6 6 6 6 6 6 6 6 6 6 6 6 6 6 6 6 6 6 6 6 6 6 6 6 6 6 6 6 6 6 6 6 6 6 6 6 6 6 6 6 6 6 6 6 6 6 6 6 6 6 6 6 6 6 6 6 [ Q N +       ",
"        + O P [ 6 6 6 6 6 6 6 6 6 6 6 6 6 6 6 6 6 6 6 6 6 6 6 6 6 6 6 6 6 6 6 6 6 6 6 6 6 6 6 6 6 5 5 5 6 6 6 6 6 6 6 6 6 6 6 6 6 6 6 6 6 6 6 6 6 6 6 6 6 [ Q N +       ",
"        + O P [ 6 6 6 6 6 6 6 6 6 6 6 6 6 6 6 6 6 6 6 6 6 6 6 6 6 6 6 6 6 6 6 6 6 6 6 6 6 6 6 6 5 6 6 6 5 6 6 6 6 6 6 6 6 6 6 6 6 6 6 6 6 6 6 6 6 6 6 6 6 [ Q N +       ",
"        + O P [ 6 6 6 6 6 6 6 6 6 6 6 6 6 6 6 6 6 6 6 6 6 6 6 6 6 6 6 6 6 6 6 6 6 6 6 6 6 6 6 6 5 6 R S 5 6 6 6 6 6 6 6 6 6 6 6 6 6 6 6 6 6 6 6 6 6 6 6 6 [ Q N +       ",
"        + O P [ 6 6 6 6 6 6 6 6 6 6 6 6 6 6 6 6 6 6 6 6 6 6 6 6 6 6 6 6 6 6 6 6 6 6 6 6 6 6 6 6 6 5 5 5 6 6 6 6 6 6 6 6 6 6 6 6 6 6 6 6 6 6 6 6 6 6 6 6 6 [ Q N +       ",
"        + O P [ 6 6 6 6 6 6 6 6 6 6 6 6 6 6 6 6 6 6 6 6 6 6 6 6 6 6 6 6 6 6 6 6 6 6 6 6 6 6 6 6 6 6 6 6 6 6 6 6 6 6 6 6 6 6 6 6 6 6 6 6 6 6 6 6 6 6 6 6 6 [ Q N +       ",
"        + O P [ 6 6 6 6 6 6 6 6 6 6 6 6 6 6 6 6 6 6 6 6 6 6 6 6 6 6 6 6 6 6 6 6 6 6 6 6 6 6 6 6 6 6 6 6 6 6 6 6 6 6 6 6 6 6 6 6 6 6 6 6 6 6 6 6 6 6 6 6 6 [ Q N +       ",
"        + O P [ 6 6 6 6 6 6 6 6 6 6 6 6 6 6 6 6 6 6 6 6 6 6 6 6 6 6 6 6 6 6 5 T [ [ [ [ U V 5 6 6 6 6 6 6 6 6 6 6 6 6 6 6 6 6 6 6 6 6 6 6 6 6 6 6 6 6 6 6 [ Q N +       ",
"        + O P [ 6 6 6 6 6 6 6 6 [ [ [ [ [ 6 6 6 6 6 V [ [ [ [ [ 6 6 6 6 6 [ [ W X Y Z `  ...[ [ +.6 6 6 T [ [ [ [ [ [ [ [ [ [ [ V 6 6 6 6 6 6 6 6 6 6 6 6 [ Q N +       ",
"        + O P [ 6 6 6 6 6 6 6 [ @.#.$.%.&.+.6 6 6 V *.=.-.%.;.>.[ 6 6 6 [ ,.'.).!.~.{.!.].^./.(._.+.6 U :.<.[.%.%.%.%.$.#.}.|.1.2.[ 6 6 6 6 6 6 6 6 6 6 6 [ Q N +       ",
"        + O P [ 6 6 6 6 6 6 6 [ 3.+ + + + V 6 6 6 T 4.5.+ + + 6.[ 6 6 [ 7.!.+ + + + + + + + + 8.9.U 6 [ 0.a.+ + + + + + + + b.c.d.Z [ 6 6 6 6 6 6 6 6 6 6 [ Q N +       ",
"        + O P [ 6 6 6 6 6 6 6 [ e.f.+ + + V 6 6 6 T g.h.+ + + <.[ 6 [ i.j.+ + + + k.l.m.+ + + n. .U 6 [ o.p.+ + . + + + + + + + + p.q.V 6 6 6 6 6 6 6 6 6 [ Q N +       ",
"        + O P [ 6 6 6 6 6 6 6 [ e.f.+ + + V 6 6 6 T g.h.+ + + <.[ 6 [ r.b.+ + s.t.u.v.w.,.x.%.y.i.U 6 [ o.p.+ + + z.A.B.C.D.. + + f.E.[ 6 6 6 6 6 6 6 6 6 [ Q N +       ",
"        + O P [ 6 6 6 6 6 6 6 [ e.f.+ + + V 6 6 6 T g.h.+ + + <.[ 6 [ F.+ + + G.H.T T T T H.I.J.K.5 6 [ o.p.+ + + A.L.M...` N.+ + O.%.[ 6 6 6 6 6 6 6 6 6 [ Q N +       ",
"        + O P [ 6 6 6 6 6 6 6 [ e.f.+ + + V 6 6 6 T g.h.+ + + <.[ 6 [ P.+ + + Q.[ [ U +.6 5 +.+.5 6 6 [ o.p.+ + + E.M.+.V V R.+ + O.#.[ 6 6 6 6 6 6 6 6 6 [ Q N +       ",
"        + O P [ 6 6 6 6 6 6 6 [ e.f.+ + + V 6 6 6 T g.h.+ + + <.[ 6 [ S.+ + + f.T.U.V...[ [ +.6 6 5 5 [ o.p.+ + + G.U [ 6 W.H . + X.Y.[ 6 6 6 6 6 6 6 6 6 [ Q N +       ",
"        + O P [ 6 6 6 6 6 5 5 [ e.f.+ + + V 6 6 6 T g.h.+ + + <.[ 6 [ Z.k.+ . + H O.X.`.j.W. +[ 6 6 .+[ ++p.+ + + @+b.b.b.O.. + . #+T 5 6 6 6 6 6 6 6 6 6 [ Q N +       ",
"        + O P [ 6 6 6 6 5 6 6 [ e.f.+ + + V 6 6 6 T g.h.+ + + <.[ 6 +.6 $+. + . + + + + . . %+&+T 5 6 [ o.p.+ + . + + + + + + . ].*++.6 6 6 6 6 6 6 6 6 6 [ Q N +       ",
"        + O P [ 6 6 6 6 6 5 5 [ e.f.+ + + V 6 6 6 T g.h.+ . + <.[ 6 6 +.K.=+%+H . . + + + . + -+;+[ 5 [ o.p.+ + + H N.N.N.H . + + >+i.T 5 6 6 6 6 6 6 6 6 [ Q N +       ",
"        + O P [ 6 6 6 6 6 6 6 [ e.f.+ + + V 5 6 6 T g.h.+ + + <.[ 6 6 6 5 [ I.,+S.l.'+f.. + . + j.)+T [ o.p.+ + + '.Y !+~+{+`.+ + . ]+[ 5 6 6 6 6 6 6 6 6 [ Q N +       ",
"        + O P [ 6 6 6 6 6 6 6 [ ^+@++ + + K.5 6 6 T 4./++ + + r.[ 6 6 5 5 6 +.U [ [ (+B.>++ + + n._+[ [ o.p.+ + + B.:+T T [ <++ . + [+++[ 6 6 6 6 6 6 6 6 [ Q N +       ",
"        + O P [ 6 6 6 6 6 6 6 [ }+-++ . + w.V 5 5 U ,.+ + + N.|+[ 6 5 :+5 +.5 5 6 5 V [ 1++ + + >+1.[ [ o.p.+ + + E.2.5 5 V _++ + + 2+3+[ 6 6 6 6 6 6 6 6 [ Q N +       ",
"        + O P [ 6 6 6 6 6 6 6 [ 1.4++ . + 5+2.V V I.r.+ . + 6+7+[ 6 [ 8+++9+..V T T T +.` + . + 0+0.[ [ o.p.+ + + |+H.[ T K.C.+ . + 2+a+[ 6 6 6 6 6 6 6 6 [ Q N +       ",
"        + O P [ 6 6 6 6 6 6 6 +.M.b++ + + H ;+c+_+d+f.+ + + d.e+U 6 [ f+N.g+|.h+i+v.w.j+].+ + + k+l+T [ o.p.+ + + }.Y m+Y <+b.+ + + 5.g.U 6 6 6 6 6 6 6 6 [ Q N +       ",
"        + O P [ 6 6 6 6 6 6 6 6 [ (.4++ + + + + + + + + + n+3+[ 6 6 [ =.O.+ + + %+l.o++ + . + -+{+[ 6 [ o.p.+ + H + + + + + + + + H &.[ 5 6 6 6 6 6 6 6 6 [ Q N +       ",
"        + O P [ 6 6 6 6 6 6 6 6 5 [ p+0++ + + + + + + + 0+E..++.6 6 [ |+s.. + + + + + + + + m.q+r+V 6 [ 0.b++ + + + + + + + + + l.-.s+V 6 6 6 6 6 6 6 6 6 [ Q N +       ",
"        + O P [ 6 6 6 6 6 6 6 6 6 5 [ t+u+P.!.~.{.]+).v+h+[ V 6 6 6 V )+w+x+y+z+!.{.~.p.A+[.3+B+U 6 6 [ v.C+D+E+E+E+E+E+P.F+#+G+H+6 U 6 6 6 6 6 6 6 6 6 6 [ Q N +       ",
"        + O P [ 6 6 6 6 6 6 6 6 6 6 5 [ [ )+X Y V.I+J+[ [ 5 6 6 6 6 6 T [ [ 6 K+X V.~+,.(+U [ +.6 6 6 5 :+s+*.q.q.q.q.q.)+l+5 [ [ +.6 6 6 6 6 6 6 6 6 6 6 [ Q N +       ",
"        + O P [ 6 6 6 6 6 6 6 6 6 6 6 6 5 T [ [ [ [ T 5 6 6 6 6 6 6 6 6 6 6 +.U [ [ [ [ U +.6 6 6 6 6 6 5 T U T T T T T T T +.6 6 6 6 6 6 6 6 6 6 6 6 6 6 [ Q N +       ",
"        + O P [ 6 6 6 6 6 6 6 6 6 6 6 6 6 6 6 6 6 6 6 6 6 6 6 6 6 6 6 6 6 6 6 6 6 6 6 6 6 6 6 6 6 6 6 6 6 6 6 6 6 6 6 6 6 6 6 6 6 6 6 6 6 6 6 6 6 6 6 6 6 [ Q N +       ",
"        + O P [ 6 6 6 6 6 6 6 6 6 6 6 6 6 6 6 6 6 6 6 6 6 6 6 6 6 6 6 6 6 6 6 6 6 6 6 6 6 6 6 6 6 6 6 6 6 6 6 6 6 6 6 6 6 6 6 6 6 6 6 6 6 6 6 6 6 6 6 6 6 [ Q N +       ",
"        + O P [ 6 6 6 6 6 6 6 6 6 6 6 6 6 6 6 6 6 6 6 6 6 6 6 6 6 6 6 6 6 6 6 6 6 6 6 6 6 6 6 6 6 6 6 6 6 6 6 6 6 6 6 6 6 6 6 6 6 6 6 6 6 6 6 6 6 6 6 6 6 [ Q N +       ",
"        + O P [ 6 6 6 6 6 6 6 6 6 6 6 6 6 6 6 6 6 6 6 6 6 6 6 6 6 6 6 6 6 6 6 6 6 6 6 6 6 6 6 6 6 6 6 6 6 6 6 6 6 6 6 6 6 6 6 6 6 6 6 6 6 6 6 6 6 6 6 6 6 [ Q N +       ",
"        + O P [ 6 6 6 6 6 6 6 6 6 6 6 6 6 6 6 6 6 6 6 6 6 6 6 6 6 6 6 6 6 6 6 6 6 6 6 6 6 6 6 6 6 6 6 6 6 6 6 6 6 6 6 6 6 6 6 6 6 6 6 6 6 6 6 6 6 6 6 6 6 [ Q N +       ",
"        + O P [ 6 6 6 6 6 6 6 6 6 6 6 6 6 6 6 6 6 6 6 6 6 6 6 6 6 6 6 6 6 6 6 6 6 6 6 6 6 6 6 6 6 6 6 6 6 6 6 6 6 6 6 6 6 6 6 6 6 6 6 6 6 6 6 6 6 6 6 6 6 [ Q N +       ",
"        + O P [ 6 6 6 6 6 6 6 6 6 6 6 6 6 6 6 6 6 6 6 6 6 6 6 6 6 6 6 6 6 6 6 6 6 6 6 6 6 6 6 6 6 6 6 6 6 6 6 6 6 6 6 6 6 6 6 6 6 6 6 6 6 6 6 6 6 6 6 6 6 [ Q N +       ",
"        + O P [ 6 6 6 6 6 6 6 6 6 6 6 6 6 6 6 6 6 6 6 6 6 6 6 6 6 6 6 6 6 6 6 6 6 6 6 6 6 6 6 6 6 6 6 6 6 6 6 6 6 6 6 6 6 6 6 6 6 6 6 6 6 6 6 6 6 6 6 6 6 [ Q N +       ",
"        + O P [ 6 6 6 6 6 6 6 6 6 6 6 6 6 6 6 6 6 6 6 6 6 6 6 6 6 6 6 6 6 6 6 6 6 6 6 6 6 6 6 6 6 6 6 6 6 6 6 6 6 6 6 6 6 6 6 6 6 6 6 6 6 6 6 6 6 6 6 6 6 [ Q N +       ",
"        + O P [ 6 6 6 6 6 6 6 6 6 6 6 6 6 6 6 6 6 6 6 6 6 6 6 6 6 6 6 6 6 6 6 6 6 6 6 6 6 6 6 6 6 6 6 6 6 6 6 6 6 6 6 6 6 6 6 6 6 6 6 6 6 6 6 6 6 6 6 6 6 [ Q N +       ",
"        + O P [ 6 6 6 6 6 6 6 6 6 6 6 6 6 6 6 6 6 6 6 6 6 6 6 6 6 6 6 6 6 6 6 6 6 6 6 6 6 6 6 6 6 6 6 6 6 6 6 6 6 6 6 6 6 6 6 6 6 6 6 6 6 6 6 6 6 6 6 6 6 [ Q N +       ",
"        + O P [ 6 6 6 6 6 6 6 6 6 6 6 6 6 6 6 6 6 6 6 6 6 6 6 6 6 6 6 6 6 6 6 6 6 6 6 6 6 6 6 6 6 6 6 6 6 6 6 6 6 6 6 6 6 6 6 6 6 6 6 6 6 6 6 6 6 6 6 6 6 [ Q N +       ",
"        + O P [ 6 6 6 6 6 6 6 6 6 6 6 6 6 6 6 6 6 6 6 6 6 6 6 6 6 6 6 6 6 6 6 6 6 6 6 6 6 6 6 6 6 6 6 6 6 6 6 6 6 6 6 6 6 6 6 6 6 6 6 6 6 6 6 6 6 6 6 6 6 [ Q N +       ",
"        + O P [ 6 6 6 6 6 6 6 6 6 6 6 6 6 6 6 6 6 6 6 6 6 6 6 6 6 6 6 6 6 6 6 6 6 6 6 6 6 6 6 6 6 6 6 6 6 6 6 6 6 6 6 6 6 6 6 6 6 6 6 6 6 6 6 6 6 6 6 6 6 [ Q N +       ",
"        + O L+[ 6 6 6 6 6 6 6 6 6 6 6 6 6 6 6 6 6 6 6 6 6 6 6 6 6 6 6 6 6 6 6 6 6 6 6 6 6 6 6 6 6 6 6 6 6 6 6 6 6 6 6 6 6 6 6 6 6 6 6 6 6 6 6 6 6 6 6 6 6 [ M N +       ",
"        + M+N+[ 5 6 6 6 6 6 6 6 6 6 6 6 6 6 6 6 6 6 6 6 6 6 6 6 6 6 6 6 6 6 6 6 6 6 6 6 6 6 6 6 6 6 6 6 6 6 6 6 6 6 6 6 6 6 6 6 6 6 6 6 6 6 6 6 6 6 6 6 6 [ O+P++       ",
"        . + Q+R+l 6 6 6 6 6 6 6 6 6 6 6 6 6 6 6 6 6 6 6 6 6 6 6 6 6 6 6 6 6 6 6 6 6 6 6 6 6 6 6 6 6 6 6 6 6 6 6 6 6 6 6 6 6 6 6 6 6 6 6 6 6 6 6 6 6 6 6 6 [ S+T++       ",
"          + U+V+W+6 6 6 6 6 6 6 6 6 6 6 6 6 6 6 6 6 6 6 6 6 6 6 6 6 6 6 6 6 6 6 6 6 6 6 6 6 6 6 6 6 6 6 6 6 6 6 6 6 6 6 6 6 6 6 6 6 6 6 6 6 6 6 6 6 6 6 5 [ X+o +       ",
"          + Y+Z+[ 6 6 6 6 6 6 6 6 6 6 6 6 6 6 6 6 6 6 6 6 6 6 6 6 6 6 6 6 6 6 6 6 6 6 6 6 6 6 6 6 6 6 6 6 6 6 6 6 6 6 6 6 6 6 6 6 6 6 6 6 6 6 6 6 6 6 6 `+ @.@+         ",
"          + @ +@@@l 6 6 6 6 6 6 6 6 6 6 6 6 6 6 6 6 6 6 6 6 6 6 6 6 6 6 6 6 6 6 6 6 6 6 6 6 6 6 6 6 6 6 6 6 6 6 6 6 6 6 6 6 6 6 6 6 6 6 6 6 6 6 6 6 6 7 [ #@$@+         ",
"          . + %@c [ 6 6 6 6 6 6 6 6 6 6 6 6 6 6 6 6 6 6 6 6 6 6 6 6 6 6 6 6 6 6 6 6 6 6 6 6 6 6 6 6 6 6 6 6 6 6 6 6 6 6 6 6 6 6 6 6 6 6 6 6 6 6 6 6 6 [ &@*@+ =@        ",
"            + + -@;@[ 7 6 6 6 6 6 6 6 6 6 6 6 6 6 6 6 6 6 6 6 6 6 6 6 6 6 6 6 6 6 6 6 6 6 6 6 6 6 6 6 6 6 6 6 6 6 6 6 6 6 6 6 6 6 6 6 6 6 6 6 6 6 7 [ >@,@'@+           ",
"              + o )@!@[ ~@7 6 6 6 6 6 6 6 6 6 6 6 6 6 6 6 6 6 6 6 6 6 6 6 6 6 6 6 6 6 6 6 6 6 6 6 6 6 6 6 6 6 6 6 6 6 6 6 6 6 6 6 6 6 6 6 6 6 6 e [ {@]@^@+ .           ",
"              . + /@(@_@:@[ [ U l 5 5 5 5 5 5 5 5 5 5 5 5 5 5 5 5 5 5 5 5 5 5 5 5 5 5 5 5 5 5 5 5 5 5 5 5 5 5 5 5 5 5 5 5 5 5 5 5 5 5 5 s T [ [ <@[@}@|@+ .             ",
"                . + + 1@2@3@4@5@d [ [ [ [ [ [ [ [ [ [ [ [ [ [ [ [ [ [ [ [ [ [ [ [ [ [ [ [ [ [ [ [ [ [ [ [ [ [ [ [ [ [ [ [ [ [ [ [ [ [ [ [ 6@7@w 8@9@/@+ .               ",
"                    + + + # %@0@a@b@c@c@c@c@c@c@c@c@c@c@c@c@c@c@c@c@c@c@c@c@c@c@c@c@c@c@c@c@c@c@c@c@c@c@c@c@c@c@c@c@c@c@c@c@c@c@c@c@c@c@d@e@f@g@h@+ +                   ",
"                        + + + + + + + + + + + + + + + + + + + + + + + + + + + + + + + + + + + + + + + + + + + + + + + + + + + + + + + + + + + + +                       ",
"                                                                                                                                                                        ",
"                                                                                                                                                                        ",
"                                                                                                                                                                        ",
"                                                                                                                                                                        "};
