/* XPM */
static char * usb_logo60x60_xpm[] = {
"60 60 184 2",
"  	c None",
". 	c #FEFEFE",
"+ 	c #FFFFFF",
"@ 	c #F9F9FA",
"# 	c #D5D8DA",
"$ 	c #879098",
"% 	c #383C3F",
"& 	c #41474C",
"* 	c #41474B",
"= 	c #414549",
"- 	c #8A9198",
"; 	c #FCFCFC",
"> 	c #BABFC3",
", 	c #3D4347",
"' 	c #000001",
") 	c #000000",
"! 	c #020202",
"~ 	c #020101",
"{ 	c #020201",
"] 	c #000002",
"^ 	c #42474B",
"/ 	c #D5DADF",
"( 	c #C8D0D6",
"_ 	c #06090C",
": 	c #050505",
"< 	c #060606",
"[ 	c #070B0D",
"} 	c #BDC6CD",
"| 	c #D0D5D9",
"1 	c #030608",
"2 	c #050404",
"3 	c #202528",
"4 	c #F2F3F4",
"5 	c #FCFCFD",
"6 	c #5A5F64",
"7 	c #848B92",
"8 	c #F3F4F5",
"9 	c #191E21",
"0 	c #050504",
"a 	c #050B0F",
"b 	c #F1F2F2",
"c 	c #000205",
"d 	c #D5D9DC",
"e 	c #BBBDC0",
"f 	c #BABEC2",
"g 	c #B6B9BC",
"h 	c #BDC1C5",
"i 	c #070707",
"j 	c #070809",
"k 	c #010101",
"l 	c #030303",
"m 	c #040404",
"n 	c #515151",
"o 	c #797979",
"p 	c #767676",
"q 	c #5C5C5C",
"r 	c #2A2A2A",
"s 	c #464646",
"t 	c #DADADA",
"u 	c #8B8B8B",
"v 	c #787878",
"w 	c #303030",
"x 	c #404040",
"y 	c #F0F0F0",
"z 	c #B8B8B8",
"A 	c #474747",
"B 	c #424242",
"C 	c #F9F9F9",
"D 	c #CCCCCC",
"E 	c #828282",
"F 	c #545454",
"G 	c #E5E5E5",
"H 	c #CECECE",
"I 	c #EDEDED",
"J 	c #393939",
"K 	c #3C3C3C",
"L 	c #292929",
"M 	c #626262",
"N 	c #101010",
"O 	c #6A6A6A",
"P 	c #282828",
"Q 	c #3A3A3A",
"R 	c #202020",
"S 	c #ECECEC",
"T 	c #949494",
"U 	c #212121",
"V 	c #D1D1D1",
"W 	c #9C9C9C",
"X 	c #BDBDBD",
"Y 	c #BCBCBC",
"Z 	c #444444",
"` 	c #242424",
" .	c #5B5B5B",
"..	c #707070",
"+.	c #F5F5F5",
"@.	c #ADADAD",
"#.	c #555555",
"$.	c #323232",
"%.	c #C0C0C0",
"&.	c #E1E1E1",
"*.	c #DDDDDD",
"=.	c #E2E2E2",
"-.	c #FDFDFD",
";.	c #414141",
">.	c #808080",
",.	c #747474",
"'.	c #F7F7F7",
").	c #2B2B2B",
"!.	c #0F0F0F",
"~.	c #141414",
"{.	c #878787",
"].	c #353535",
"^.	c #1B1B1B",
"/.	c #F3F3F3",
"(.	c #6F6F6F",
"_.	c #0B0B0B",
":.	c #0A0A0A",
"<.	c #313131",
"[.	c #222222",
"}.	c #131313",
"|.	c #EEEEEE",
"1.	c #ACACAC",
"2.	c #080808",
"3.	c #717171",
"4.	c #3F3F3F",
"5.	c #8F8F8F",
"6.	c #898989",
"7.	c #272727",
"8.	c #1E1E1E",
"9.	c #111111",
"0.	c #9E9E9E",
"a.	c #EFEFEF",
"b.	c #1F1F1F",
"c.	c #858585",
"d.	c #B2B2B2",
"e.	c #C1C1C1",
"f.	c #7D7D7D",
"g.	c #FBFBFB",
"h.	c #A6A6A6",
"i.	c #969696",
"j.	c #484848",
"k.	c #7A7A7A",
"l.	c #595959",
"m.	c #0E0E0E",
"n.	c #1D1D1D",
"o.	c #565656",
"p.	c #777777",
"q.	c #7B7B7B",
"r.	c #5E5E5E",
"s.	c #151515",
"t.	c #121212",
"u.	c #3D3D3D",
"v.	c #B2B4B7",
"w.	c #BCC0C4",
"x.	c #C6C8CA",
"y.	c #F3F3F4",
"z.	c #14181C",
"A.	c #020407",
"B.	c #FAFBFB",
"C.	c #484B4E",
"D.	c #69737C",
"E.	c #BFC4C9",
"F.	c #101417",
"G.	c #EFF2F6",
"H.	c #FFFFFE",
"I.	c #A5ADB4",
"J.	c #060605",
"K.	c #AEB7BF",
"L.	c #9CA1A5",
"M.	c #1E2226",
"N.	c #010100",
"O.	c #040303",
"P.	c #010000",
"Q.	c #282F33",
"R.	c #B1B7BC",
"S.	c #F5F5F6",
"T.	c #A7AFB5",
"U.	c #4B565F",
"V.	c #1A1C1D",
"W.	c #000407",
"X.	c #1F2122",
"Y.	c #545E66",
"Z.	c #B1BAC1",
"`.	c #FAFAFA",
"                                                                                                                        ",
"                                                                                                                        ",
"                                                                                                                        ",
"                . + + + + + + + + + + + + + + + + + + + + + + + + + + + + + + + + + + + + + + + + + + + .               ",
"            + + @ # $ % & * * * * * * * * * * * * * * * * * * * * * * * * * * * * * * * * * * * & = - # ; + .           ",
"          . + > , ' ) ! ~ ~ ~ ~ ~ ~ ~ ~ ~ ~ ~ ~ ~ ~ ~ ~ ~ ~ ~ ~ ~ ~ ~ ~ ~ ~ ~ ~ ~ ~ ~ ~ ~ ~ ~ ~ ~ { ) ] ^ / + .         ",
"          + ( _ : < < < < < < < < < < < < < < < < < < < < < < < < < < < < < < < < < < < < < < < < < < < : [ } +         ",
"        + | 1 2 < < < < < < < < < < < < < < < < < < < < < < < < < < < < < < < < < < < < < < < < < < < < < : 3 4 +       ",
"      + 5 6 : < < < < < < < < < < < < < < < < < < < < < < < < < < < < < < < < < < < < < < < < < < < < < < < ) 7 +       ",
"      . 8 9 < < < < < < < < < < < < < < < < < < < < < < < < < < < < < < < < < < < < < < < < < < < < < < < < 0 a + +     ",
"      . b c < < < < < < < < < < < < < < < < < < < < < < < < < < < < < < < < < < < < < < < < < < < < < < < < < ) d +     ",
"      + e ) < < < < < < < < < < < < < < < < < < < < < < < < < < < < < < < < < < < < < < < < < < < < < < < < < ) f +     ",
"      + g ) < < < < < < < < < < < < < < < < < < < < < < < < < < < < < < < < < < < < < < < < < < < < < < < < < ) h +     ",
"      + g ) < < < < < < < < < < < < < < < < < < < < < < < < < < < < < < < < < < < < < < < < < < < < < < < < < ) h +     ",
"      + g ) < < < < < < < < < < < < < < < < < < < < < < < < < < < < < < < < < < < < < < < < < < < < < < < < < ) h +     ",
"      + g ) < < < < < < < < < < < < < < < < < < < < < < < < < < < < < < < < < < < < < < < < < < < < < < < < < ) h +     ",
"      + g ) < < < < < < < < < < < < < < < < < < < < < < < < < < < < < < < < < < < < < < < < < < < < < < < < < ) h +     ",
"      + g ) < < < < < < < < < < < < < < < < < < < < < < < < < < < < < < < < < < < < < < < < < < < < < < < < < ) h +     ",
"      + g ) < < < < < < < < < < < < < < < < < < < < < < < < < < < < < : : < < < < < < < < < < < < < < < < < < ) h +     ",
"      + g ) < < < < < < < < < < < < < < < < < < < < < < < < < < < < : i j : < < < < < < < < < < < < < < < < < ) h +     ",
"      + g ) < < < < < < < < < < < < < < < < < < < < < < < < < < < < < : : < < < < < < < < < < < < < < < < < < ) h +     ",
"      + g ) < < < < < < < < < < < < < < < < < < < < < < < < < < < < < < < < < < < < < < < < < < < < < < < < < ) h +     ",
"      + g ) < < < < < < < < < < < < < < < < < < < < < : k ) ) ) l : < < < < < < < < < < < < < < < < < < < < < ) h +     ",
"      + g ) < < < < < : ! ! k < < < < ! ! ! m < < < m i n o p q r l : < < : ! ! ! ! ! ! ! m : < < < < < < < < ) h +     ",
"      + g ) < < < < < s + + + ) < < ) t + + u : < ) v + + + + + + + w l : x + + + + + + y z A ) < < < < < < < ) h +     ",
"      + g ) < < < < < B C + + ) < < ) D + + E : k F + + + G H I + + J ! : K ; + . + + + + + + L l < < < < < < ) h +     ",
"      + g ) < < < < < B C + + ) < < ) D + + E : ) H + + M ) ) ) N O P l : K ; + + Q R s S + + T ) < < < < < < ) h +     ",
"      + g ) < < < < < B C + + ) < < ) D + + E : ) I + + n ) ! : : m : < : K ; + + U m ) V + + W ) < < < < < < ) h +     ",
"      + g ) < < < : : B C + + ) < < ) D + + E : ) X + . + Y v Z ` l : < < K ; + +  .Z ..+.+ + Q l < < < < < < ) h +     ",
"      + g ) < < < < < B C + + ) < < ) D + + E : l ` + + + + + + S @.) < < K ; + . + + + + C #.) < < < < < < < ) h +     ",
"      + g ) < < < : : B C + + ) < < ) D + + E : < m $.D S . + + . + %.) : K ; + + &.*.=.-.+ + A ! < < < < < < ) h +     ",
"      + g ) < < < < < ;.C + + ) : < ) H + + >.: < < l : ` K ,.G + . '.` : K ; + + ).!.~.{.+ + G !.< < < < < < ) h +     ",
"      + g ) < < < < < ].+.. + ^.m : ) /.+ . (.: : _.l : : < k :.+ + '.<.: K ; + + [.: l w + + y P < < < < < < ) h +     ",
"      + g ) < < < < < }.|.. + 1.2.) 3.+ . + 4.: ) 5.6.7.) ) ) Q + . '.8.: K ; + + 9.) l 0.+ . a.b.< < < < < < ) h +     ",
"      + g ) < < < < < ) c.+ + + + + + . + H ) : ) d.+ + C V *.+ . + e.) : K ; + . + + + + + + %.) < < < < < < ) h +     ",
"      + g ) < < < < < < ) f.g.+ + + + + h.!.: < ) p S + + + + + + @.N : : 4.+ + + + + + + '.i.!.: < < < < < < ) h +     ",
"      + g ) < < < < < < < : m j.p k.l.m.l < < < < : k n.o.p.q.r.s.l < < : t.x x x x ;.u.U ) : < < < < < < < < ) h +     ",
"      + g ) < < < < < < < < : k ) ) ) : < < < < < < < m ) ) ) ) m < < < < : ! ! ! ! ! ! m < < < < < < < < < < ) h +     ",
"      + g ) < < < < < < < < < < < < < < < < < < < < < < < < < < < < < < < < < < < < < < < < < < < < < < < < < ) h +     ",
"      + g ) < < < < < < < < < < < < < < < < < < < < < < < < < < < < < < < < < < < < < < < < < < < < < < < < < ) h +     ",
"      + g ) < < < < < < < < < < < < < < < < < < < < < < < < < < < < < < < < < < < < < < < < < < < < < < < < < ) h +     ",
"      + g ) < < < < < < < < < < < < < < < < < < < < < < < < < < < < < < < < < < < < < < < < < < < < < < < < < ) h +     ",
"      + g ) < < < < < < < < < < < < < < < < < < < < < < < < < < < < < < < < < < < < < < < < < < < < < < < < < ) h +     ",
"      + g ) < < < < < < < < < < < < < < < < < < < < < < < < < < < < < < < < < < < < < < < < < < < < < < < < < ) h +     ",
"      + g ) < < < < < < < < < < < < < < < < < < < < < < < < < < < < < < < < < < < < < < < < < < < < < < < < < ) h +     ",
"      + g ) < < < < < < < < < < < < < < < < < < < < < < < < < < < < < < < < < < < < < < < < < < < < < < < < < ) h +     ",
"      + g ) < < < < < < < < < < < < < < < < < < < < < < < < < < < < < < < < < < < < < < < < < < < < < < < < < ) h +     ",
"      + g ) < < < < < < < < < < < < < < < < < < < < < < < < < < < < < < < < < < < < < < < < < < < < < < < < < ) h +     ",
"      + v.) < < < < < < < < < < < < < < < < < < < < < < < < < < < < < < < < < < < < < < < < < < < < < < < < < ) w.+     ",
"      . b ' < < < < < < < < < < < < < < < < < < < < < < < < < < < < < < < < < < < < < < < < < < < < < < < < < ) x.+     ",
"      . y.z.< < < < < < < < < < < < < < < < < < < < < < < < < < < < < < < < < < < < < < < < < < < < < < < < : A.+ +     ",
"      + B.C.: < < < < < < < < < < < < < < < < < < < < < < < < < < < < < < < < < < < < < < < < < < < < < < < ) D.+       ",
"        + E.) < < < < < < < < < < < < < < < < < < < < < < < < < < < < < < < < < < < < < < < < < < < < < < < F.G.H.      ",
"        + + I.) : < < < < < < < < < < < < < < < < < < < < < < < < < < < < < < < < < < < < < < < < < < < J.! K.+         ",
"          . + L.M.) N.m : : : : : : : : : : : : : : : : : : : : : : : : : : : : : : : : : : : : : O.P.) Q.R.+ .         ",
"            + . S.T.U.V.W.W.W.W.W.W.W.W.W.W.W.W.W.W.W.W.W.W.W.W.W.W.W.W.W.W.W.W.W.W.W.W.W.W.W.W.c X.Y.Z.`.+ .           ",
"                . + + + + + + + + + + + + + + + + + + + + + + + + + + + + + + + + + + + + + + + + + + + .               ",
"                                                                                                                        ",
"                                                                                                                        ",
"                                                                                                                        "};
